<svg width="280" height="320" viewBox="0 0 280 320" xmlns="http://www.w3.org/2000/svg">
  <rect width="280" height="320" fill="#0d1420"/>
  <path d="M140,158
    C140,158 96,132 96,103
    C96,84 109,73 124,76
    C132,78 138,85 140,92
    C142,85 148,78 156,76
    C171,73 184,84 184,103
    C184,132 140,158 140,158 Z"
    fill="none" stroke="#c8d4e0" stroke-width="4.5" stroke-linejoin="round"/>
  <line x1="140" y1="38" x2="140" y2="48" stroke="#e74c3c" stroke-width="3.5" stroke-linecap="round"/>
  <text x="140" y="30" text-anchor="middle" font-family="Inter,sans-serif" font-size="11" font-weight="700" fill="#e74c3c">N</text>
  <line x1="140" y1="176" x2="140" y2="186" stroke="#4a5568" stroke-width="3.5" stroke-linecap="round"/>
  <line x1="204" y1="112" x2="214" y2="112" stroke="#e74c3c" stroke-width="3.5" stroke-linecap="round" opacity="0.8"/>
  <line x1="66" y1="112" x2="76" y2="112" stroke="#e74c3c" stroke-width="3.5" stroke-linecap="round" opacity="0.8"/>
  <polygon points="140,68 132,112 148,112" fill="#e74c3c"/>
  <polygon points="140,153 132,112 148,112" fill="#4a5568"/>
  <circle cx="140" cy="112" r="6" fill="#0d1420" stroke="#c8d4e0" stroke-width="3"/>
  <circle cx="140" cy="112" r="2.5" fill="#c8d4e0"/>
  <!-- wordmark: Inter 400, tracking 0.42em, ice — igual que .wordmark-lg del title card DT-45 -->
  <text x="140" y="212" text-anchor="middle" font-family="Inter, sans-serif" font-size="22" font-weight="400" letter-spacing="0.42em" fill="#e8eef4">FOLLOWER</text>
  <!-- slogan: DM Serif Display itálica, gold — igual que .slogan del title card DT-45 -->
  <text x="140" y="238" text-anchor="middle" font-family="'DM Serif Display', serif" font-style="italic" font-size="14" fill="#f0c87a" opacity="0.9">your city soundtrack</text>
</svg>
