<svg width="512" height="512" viewBox="0 0 100 100" xmlns="http://www.w3.org/2000/svg">
  <rect width="100" height="100" fill="#0d1420"/>
  <g transform="translate(50,50) scale(1.4) translate(-50,-41)">
    <path d="M50,68 C50,68 28,55 28,41 C28,31 35,25 43,27 C47,28 49,32 50,35 C51,32 53,28 57,27 C65,25 72,31 72,41 C72,55 50,68 50,68 Z"
      fill="none" stroke="#c8d4e0" stroke-width="1.8" stroke-linejoin="round"/>
    <line x1="50" y1="18" x2="50" y2="23" stroke="#e74c3c" stroke-width="1.8" stroke-linecap="round"/>
    <text x="50" y="17" text-anchor="middle" font-family="Inter,sans-serif" font-size="8" font-weight="700" fill="#e74c3c">N</text>
    <line x1="50" y1="68" x2="50" y2="73" stroke="#c8d4e0" stroke-width="1" stroke-linecap="round" opacity="0.18"/>
    <line x1="72" y1="44" x2="77" y2="44" stroke="#c8d4e0" stroke-width="1" stroke-linecap="round" opacity="0.18"/>
    <line x1="23" y1="44" x2="28" y2="44" stroke="#c8d4e0" stroke-width="1" stroke-linecap="round" opacity="0.18"/>
    <polygon points="50,24 47,44 50,40 53,44" fill="#e74c3c"/>
    <polygon points="50,65 47,44 50,48 53,44" fill="#c8d4e0" opacity="0.18"/>
    <circle cx="50" cy="44" r="3.5" fill="none" stroke="#c8d4e0" stroke-width="1.2"/>
    <circle cx="50" cy="44" r="1.5" fill="#c8d4e0"/>
  </g>
</svg>
