<svg width="512" height="512" viewBox="0 0 100 100" xmlns="http://www.w3.org/2000/svg">
  <rect width="100" height="100" fill="#0d1420"/>
  <g transform="translate(50.2,52.6) scale(1.0) translate(-50,-50)">
    <g transform="translate(50,44) scale(1.6) translate(-50,-44)">
      <path d="M50,68 C50,68 28,55 28,41 C28,31 35,25 43,27 C47,28 49,32 50,35 C51,32 53,28 57,27 C65,25 72,31 72,41 C72,55 50,68 50,68 Z"
        fill="none" stroke="#c8d4e0" stroke-width="4.2" stroke-linejoin="round"/>
    </g>
    <polygon points="50,3 45,44 55,44" fill="#e74c3c"/>
    <polygon points="50,85 45,44 55,44" fill="#4a5568"/>
    <circle cx="50" cy="44" r="4.2" fill="#0d1420" stroke="#c8d4e0" stroke-width="2.6"/>
    <circle cx="50" cy="44" r="1.8" fill="#c8d4e0"/>
  </g>
</svg>